<svg width="421" height="244" viewBox="0 0 421 244" fill="none" xmlns="http://www.w3.org/2000/svg">
<rect x="15" y="16" width="398" height="217" fill="#D9D9D9"/>
<rect x="37" y="180" width="351" height="44" fill="#D9D9D9"/>
<path fill-rule="evenodd" clip-rule="evenodd" d="M12.4592 17.25C12.1972 17.938 12.0992 66.65 12.2402 125.5L12.4982 232.5H212.498H412.498L412.752 124.25L413.007 16H212.971C53.8633 16 12.8382 16.256 12.4592 17.25ZM14.9982 124V230H212.998H410.998V124V18H212.998H14.9982V124ZM25.3042 179.413L22.4982 181.827V201.333C22.4982 220.601 22.5282 220.87 24.9222 223.419L27.3472 226H213.218H399.089L401.543 223.545C403.982 221.106 403.998 220.967 403.998 201.5C403.998 182.033 403.982 181.894 401.543 179.455L399.089 177H213.599H28.1102L25.3042 179.413ZM215.998 178.891C214.492 179.307 213.374 180.436 213.187 181.73C212.816 184.284 210.511 184.951 206.782 183.584C204.497 182.745 203.664 182.965 201.532 184.968C198.83 187.507 198.313 189.915 200.091 191.693C200.86 192.462 200.874 193.363 200.137 194.741C199.161 196.564 198.24 196.664 186.558 196.214C172.723 195.681 170.998 196.219 170.998 201.066C170.998 206.204 173.792 207.096 187.571 206.36L199.689 205.712L200.311 208.089C200.653 209.396 200.497 210.901 199.965 211.433C198.174 213.224 198.979 215.85 201.972 217.981C204.3 219.639 205.371 219.871 206.906 219.049C210.074 217.354 211.804 217.821 213.201 220.75C214.277 223.006 215.265 223.555 218.701 223.805C222.495 224.081 223.039 223.821 224.47 221.055C226.062 217.975 228.275 217.257 230.953 218.951C232.735 220.078 237.746 217.37 238.547 214.846C238.847 213.9 238.536 212.233 237.856 211.144C236.347 208.728 237.929 206.293 241.321 205.81C242.976 205.574 243.574 204.705 243.816 202.185C244.173 198.471 242.641 196 239.983 196C237.86 196 236.513 193.085 237.965 191.633C239.644 189.954 239.156 187.497 236.684 185.174C234.205 182.846 231.045 182.353 229.365 184.033C228.233 185.165 224.998 184.321 224.998 182.893C224.998 181.506 221.145 177.988 219.748 178.1C219.061 178.155 217.373 178.51 215.998 178.891ZM319.686 179.75C319.45 180.162 318.946 183.764 318.566 187.753C317.802 195.788 313.88 210.352 310.915 216.162C307.225 223.396 305.601 223 338.998 223C372.37 223 370.382 223.503 367.133 215.877C366.107 213.47 364.971 210.648 364.609 209.607C364.247 208.566 363.744 207.92 363.492 208.173C362.937 208.728 364.217 213.146 366.412 218.25L368.025 222H362.976H357.927L355.948 217.384C352.781 209.994 350.091 201.183 349.39 195.899L348.74 191H354.35C360.432 191 360.327 190.887 361.354 198.5C361.577 200.15 361.701 199.025 361.629 196L361.498 190.5L354.998 190L348.498 189.5L348.173 185.513C347.659 179.185 347.225 179 332.935 179C325.884 179 319.923 179.338 319.686 179.75ZM214.998 181.961C214.998 184.965 210.799 186.686 207.327 185.104C204.943 184.018 204.382 184.161 202.106 186.437C199.741 188.803 199.675 189.106 201.2 190.631C202.421 191.851 202.613 192.883 201.946 194.637C201.087 196.897 201.238 197 205.4 197C208.131 197 210.237 196.416 211.053 195.434C212.885 193.226 217.482 190.999 220.198 191.004C222.855 191.008 228.998 194.486 228.998 195.985C228.998 196.543 226.818 197 224.153 197C220.532 197 218.837 197.52 217.445 199.059C214.558 202.249 216.572 204.394 223.022 205C229.243 205.585 230.369 207.24 226.062 209.467C222.458 211.331 222.066 210.598 225.248 207.944L227.498 206.067L222.403 206.033C217.458 206.001 213.998 204.071 213.998 201.346C213.998 198.807 218.73 195.999 223.062 195.968C227.18 195.939 227.359 195.831 225.557 194.468C222.176 191.911 216.245 192.599 212.908 195.936L209.972 198.872L193.825 197.868C184.944 197.315 176.655 197.12 175.405 197.434C172.589 198.141 171.371 201.539 173.16 203.695C174.325 205.099 176.667 205.212 192.356 204.623L210.224 203.952L212.667 206.587C214.01 208.037 214.884 209.448 214.609 209.723C214.334 209.998 213.02 209.047 211.689 207.611C209.248 204.978 207.352 204.53 203.272 205.624C201.409 206.123 201.218 206.543 202.102 208.194C202.918 209.719 202.767 210.597 201.44 212.064C200.058 213.591 199.962 214.252 200.95 215.443C202.755 217.617 205.886 218.338 207.545 216.961C209.632 215.229 214.787 217.512 215.191 220.348C215.438 222.082 216.177 222.5 218.998 222.5C221.819 222.5 222.558 222.082 222.805 220.348C223.234 217.334 228.071 215.404 230.847 217.138C232.645 218.261 233.243 218.118 235.454 216.041C237.762 213.873 237.854 213.498 236.459 211.957C234.256 209.523 236.376 205 239.719 205C241.881 205 242.088 204.628 241.808 201.25C241.557 198.208 241.063 197.438 239.191 197.173C236.509 196.793 233.696 191.934 235.76 191.246C237.619 190.626 237.25 187.538 235.081 185.575C233.53 184.171 232.756 184.059 231.023 184.987C227.881 186.668 223.189 185.352 222.809 182.684C222.562 180.951 221.723 180.436 218.748 180.19C215.516 179.922 214.998 180.167 214.998 181.961ZM320.615 183.25C320.384 184.488 319.668 189.002 319.025 193.283C317.832 201.228 314.537 212.123 311.623 217.759C310.729 219.487 309.998 221.148 309.998 221.45C309.998 221.753 320.396 222 333.105 222C354.715 222 356.166 221.887 355.503 220.25C350.532 207.978 347.982 198.254 346.455 185.75L345.875 181H333.456C321.368 181 321.025 181.06 320.615 183.25ZM90.8602 184.018C89.9592 184.544 88.9392 186.101 88.5932 187.477C88.0172 189.771 78.9352 198 76.9802 198C73.9532 198 71.4632 205.933 73.9982 207.5C74.5482 207.84 74.9982 210.535 74.9982 213.489C74.9982 218.265 74.7482 218.909 72.7482 219.294C71.5112 219.533 77.2482 219.697 85.4982 219.66C93.7482 219.623 96.7852 219.441 92.2482 219.256L83.9982 218.919V213.519C83.9982 210.548 84.4482 207.84 84.9982 207.5C85.5482 207.16 85.9982 206.102 85.9982 205.149C85.9982 203.137 93.9382 195 95.9022 195C97.4862 195 106.998 201.826 106.998 202.963C106.998 203.399 106.323 204.315 105.498 205C103.863 206.357 103.415 213.522 104.908 214.444C106.651 215.522 108.884 213.812 109.19 211.165C109.56 207.965 111.356 207.995 111.849 211.21C112.181 213.38 113.596 214.951 115.248 214.985C116.381 215.008 116.148 205.21 114.998 204.5C114.448 204.16 113.998 202.795 113.998 201.467C113.998 199.731 113.084 198.609 110.748 197.48L107.498 195.908L110.248 198.242C111.761 199.525 112.998 201.544 112.998 202.729C112.998 203.913 113.448 205.16 113.998 205.5C114.548 205.84 114.998 207.981 114.998 210.259C114.998 214.65 113.43 214.463 112.833 210C112.609 208.326 111.777 207.397 110.316 207.189C108.499 206.931 108.081 207.433 107.816 210.189C107.384 214.692 105.571 214.384 105.187 209.742C104.965 207.052 105.32 205.814 106.437 205.385C109.196 204.326 108.038 201.587 103.384 198.162C99.0432 194.967 98.9212 194.742 100.557 192.935C101.496 191.897 102.655 191.288 103.132 191.583C104.343 192.331 104.211 191.355 102.748 188.736C100.583 184.862 98.7422 183 97.0932 183.015C96.0992 183.024 96.4402 183.504 97.9982 184.29C102.702 186.661 100.84 194 95.5342 194C89.7682 194 87.9022 186.853 92.9982 184.288C94.3732 183.596 94.8232 183.037 93.9982 183.045C93.1732 183.054 91.7612 183.491 90.8602 184.018ZM83.9982 194.5C82.1322 196.425 81.1122 198 81.7302 198C82.3492 198 83.5742 198.719 84.4532 199.598C85.9182 201.063 86.3432 200.975 89.5252 198.547C91.4352 197.09 92.9982 195.656 92.9982 195.359C92.9982 194.722 88.7452 191.081 87.9442 191.033C87.6402 191.015 85.8642 192.575 83.9982 194.5ZM76.9982 199.29C72.2752 201.671 74.1612 209 79.4982 209C84.4642 209 86.7702 202.355 82.7752 199.557C80.1192 197.696 80.1562 197.698 76.9982 199.29ZM75.9982 214.5C75.9982 218.976 76.0172 219 79.4982 219C82.9792 219 82.9982 218.976 82.9982 214.5C82.9982 210.024 82.9792 210 79.4982 210C76.0172 210 75.9982 210.024 75.9982 214.5Z" fill="black"/>
<path fill-rule="evenodd" clip-rule="evenodd" d="M12.4592 17.25C12.1972 17.938 12.0992 66.65 12.2402 125.5L12.4982 232.5H212.498H412.498L412.752 124.25L413.007 16H212.971C53.8633 16 12.8382 16.256 12.4592 17.25ZM14.9982 124V230H212.998H410.998V124V18H212.998H14.9982V124ZM25.3042 179.413L22.4982 181.827V201.333C22.4982 220.601 22.5282 220.87 24.9222 223.419L27.3472 226H213.218H399.089L401.543 223.545C403.982 221.106 403.998 220.967 403.998 201.5C403.998 182.033 403.982 181.894 401.543 179.455L399.089 177H213.599H28.1102L25.3042 179.413ZM215.998 178.891C214.492 179.307 213.374 180.436 213.187 181.73C212.816 184.284 210.511 184.951 206.782 183.584C204.497 182.745 203.664 182.965 201.532 184.968C198.83 187.507 198.313 189.915 200.091 191.693C200.86 192.462 200.874 193.363 200.137 194.741C199.161 196.564 198.24 196.664 186.558 196.214C172.723 195.681 170.998 196.219 170.998 201.066C170.998 206.204 173.792 207.096 187.571 206.36L199.689 205.712L200.311 208.089C200.653 209.396 200.497 210.901 199.965 211.433C198.174 213.224 198.979 215.85 201.972 217.981C204.3 219.639 205.371 219.871 206.906 219.049C210.074 217.354 211.804 217.821 213.201 220.75C214.277 223.006 215.265 223.555 218.701 223.805C222.495 224.081 223.039 223.821 224.47 221.055C226.062 217.975 228.275 217.257 230.953 218.951C232.735 220.078 237.746 217.37 238.547 214.846C238.847 213.9 238.536 212.233 237.856 211.144C236.347 208.728 237.929 206.293 241.321 205.81C242.976 205.574 243.574 204.705 243.816 202.185C244.173 198.471 242.641 196 239.983 196C237.86 196 236.513 193.085 237.965 191.633C239.644 189.954 239.156 187.497 236.684 185.174C234.205 182.846 231.045 182.353 229.365 184.033C228.233 185.165 224.998 184.321 224.998 182.893C224.998 181.506 221.145 177.988 219.748 178.1C219.061 178.155 217.373 178.51 215.998 178.891ZM319.686 179.75C319.45 180.162 318.946 183.764 318.566 187.753C317.802 195.788 313.88 210.352 310.915 216.162C307.225 223.396 305.601 223 338.998 223C372.37 223 370.382 223.503 367.133 215.877C366.107 213.47 364.971 210.648 364.609 209.607C364.247 208.566 363.744 207.92 363.492 208.173C362.937 208.728 364.217 213.146 366.412 218.25L368.025 222H362.976H357.927L355.948 217.384C352.781 209.994 350.091 201.183 349.39 195.899L348.74 191H354.35C360.432 191 360.327 190.887 361.354 198.5C361.577 200.15 361.701 199.025 361.629 196L361.498 190.5L354.998 190L348.498 189.5L348.173 185.513C347.659 179.185 347.225 179 332.935 179C325.884 179 319.923 179.338 319.686 179.75ZM214.998 181.961C214.998 184.965 210.799 186.686 207.327 185.104C204.943 184.018 204.382 184.161 202.106 186.437C199.741 188.803 199.675 189.106 201.2 190.631C202.421 191.851 202.613 192.883 201.946 194.637C201.087 196.897 201.238 197 205.4 197C208.131 197 210.237 196.416 211.053 195.434C212.885 193.226 217.482 190.999 220.198 191.004C222.855 191.008 228.998 194.486 228.998 195.985C228.998 196.543 226.818 197 224.153 197C220.532 197 218.837 197.52 217.445 199.059C214.558 202.249 216.572 204.394 223.022 205C229.243 205.585 230.369 207.24 226.062 209.467C222.458 211.331 222.066 210.598 225.248 207.944L227.498 206.067L222.403 206.033C217.458 206.001 213.998 204.071 213.998 201.346C213.998 198.807 218.73 195.999 223.062 195.968C227.18 195.939 227.359 195.831 225.557 194.468C222.176 191.911 216.245 192.599 212.908 195.936L209.972 198.872L193.825 197.868C184.944 197.315 176.655 197.12 175.405 197.434C172.589 198.141 171.371 201.539 173.16 203.695C174.325 205.099 176.667 205.212 192.356 204.623L210.224 203.952L212.667 206.587C214.01 208.037 214.884 209.448 214.609 209.723C214.334 209.998 213.02 209.047 211.689 207.611C209.248 204.978 207.352 204.53 203.272 205.624C201.409 206.123 201.218 206.543 202.102 208.194C202.918 209.719 202.767 210.597 201.44 212.064C200.058 213.591 199.962 214.252 200.95 215.443C202.755 217.617 205.886 218.338 207.545 216.961C209.632 215.229 214.787 217.512 215.191 220.348C215.438 222.082 216.177 222.5 218.998 222.5C221.819 222.5 222.558 222.082 222.805 220.348C223.234 217.334 228.071 215.404 230.847 217.138C232.645 218.261 233.243 218.118 235.454 216.041C237.762 213.873 237.854 213.498 236.459 211.957C234.256 209.523 236.376 205 239.719 205C241.881 205 242.088 204.628 241.808 201.25C241.557 198.208 241.063 197.438 239.191 197.173C236.509 196.793 233.696 191.934 235.76 191.246C237.619 190.626 237.25 187.538 235.081 185.575C233.53 184.171 232.756 184.059 231.023 184.987C227.881 186.668 223.189 185.352 222.809 182.684C222.562 180.951 221.723 180.436 218.748 180.19C215.516 179.922 214.998 180.167 214.998 181.961ZM320.615 183.25C320.384 184.488 319.668 189.002 319.025 193.283C317.832 201.228 314.537 212.123 311.623 217.759C310.729 219.487 309.998 221.148 309.998 221.45C309.998 221.753 320.396 222 333.105 222C354.715 222 356.166 221.887 355.503 220.25C350.532 207.978 347.982 198.254 346.455 185.75L345.875 181H333.456C321.368 181 321.025 181.06 320.615 183.25ZM90.8602 184.018C89.9592 184.544 88.9392 186.101 88.5932 187.477C88.0172 189.771 78.9352 198 76.9802 198C73.9532 198 71.4632 205.933 73.9982 207.5C74.5482 207.84 74.9982 210.535 74.9982 213.489C74.9982 218.265 74.7482 218.909 72.7482 219.294C71.5112 219.533 77.2482 219.697 85.4982 219.66C93.7482 219.623 96.7852 219.441 92.2482 219.256L83.9982 218.919V213.519C83.9982 210.548 84.4482 207.84 84.9982 207.5C85.5482 207.16 85.9982 206.102 85.9982 205.149C85.9982 203.137 93.9382 195 95.9022 195C97.4862 195 106.998 201.826 106.998 202.963C106.998 203.399 106.323 204.315 105.498 205C103.863 206.357 103.415 213.522 104.908 214.444C106.651 215.522 108.884 213.812 109.19 211.165C109.56 207.965 111.356 207.995 111.849 211.21C112.181 213.38 113.596 214.951 115.248 214.985C116.381 215.008 116.148 205.21 114.998 204.5C114.448 204.16 113.998 202.795 113.998 201.467C113.998 199.731 113.084 198.609 110.748 197.48L107.498 195.908L110.248 198.242C111.761 199.525 112.998 201.544 112.998 202.729C112.998 203.913 113.448 205.16 113.998 205.5C114.548 205.84 114.998 207.981 114.998 210.259C114.998 214.65 113.43 214.463 112.833 210C112.609 208.326 111.777 207.397 110.316 207.189C108.499 206.931 108.081 207.433 107.816 210.189C107.384 214.692 105.571 214.384 105.187 209.742C104.965 207.052 105.32 205.814 106.437 205.385C109.196 204.326 108.038 201.587 103.384 198.162C99.0432 194.967 98.9212 194.742 100.557 192.935C101.496 191.897 102.655 191.288 103.132 191.583C104.343 192.331 104.211 191.355 102.748 188.736C100.583 184.862 98.7422 183 97.0932 183.015C96.0992 183.024 96.4402 183.504 97.9982 184.29C102.702 186.661 100.84 194 95.5342 194C89.7682 194 87.9022 186.853 92.9982 184.288C94.3732 183.596 94.8232 183.037 93.9982 183.045C93.1732 183.054 91.7612 183.491 90.8602 184.018ZM83.9982 194.5C82.1322 196.425 81.1122 198 81.7302 198C82.3492 198 83.5742 198.719 84.4532 199.598C85.9182 201.063 86.3432 200.975 89.5252 198.547C91.4352 197.09 92.9982 195.656 92.9982 195.359C92.9982 194.722 88.7452 191.081 87.9442 191.033C87.6402 191.015 85.8642 192.575 83.9982 194.5ZM76.9982 199.29C72.2752 201.671 74.1612 209 79.4982 209C84.4642 209 86.7702 202.355 82.7752 199.557C80.1192 197.696 80.1562 197.698 76.9982 199.29ZM75.9982 214.5C75.9982 218.976 76.0172 219 79.4982 219C82.9792 219 82.9982 218.976 82.9982 214.5C82.9982 210.024 82.9792 210 79.4982 210C76.0172 210 75.9982 210.024 75.9982 214.5Z" fill="black"/>
<path fill-rule="evenodd" clip-rule="evenodd" d="M162.971 30.0241C149.086 34.8941 139.328 43.2121 133.477 55.1611C127.405 67.5651 126.881 81.4881 131.976 95.0781C136.323 106.672 149.798 118.817 162.755 122.819C171.515 125.525 184.503 125.501 193.366 122.764L199.971 120.724V106.77V92.8171L195.515 96.2191C189.452 100.847 184.984 102.145 177.072 101.579C169.474 101.035 165.498 99.2641 160.375 94.1421C155.36 89.1261 153.684 84.6221 153.714 76.2411C153.752 65.6981 158.154 58.4061 167.458 53.4771C173.309 50.3761 184.798 50.4811 190.971 53.6901C193.446 54.9771 196.483 56.9571 197.721 58.0911L199.971 60.1531V46.1611V32.1691L194.221 30.3071C190.825 29.2071 184.582 28.3011 178.971 28.0941C171.048 27.8021 168.392 28.1221 162.971 30.0241ZM59.055 32.0541C37.526 87.9441 27.618 113.625 26.008 117.71L24 122.804L36.736 122.801L49.471 122.797L52.511 115.051L55.55 107.304H72.936H90.322L93.034 114.804L95.746 122.304L108.359 122.584C115.649 122.746 120.971 122.472 120.971 121.936C120.971 121.425 114.278 103.299 106.098 81.6561C97.917 60.0121 90.207 39.4921 88.964 36.0541L86.703 29.8041H73.312C60.349 29.8041 59.894 29.8761 59.055 32.0541ZM226.509 34.5541C226.13 37.1661 222.704 57.6341 218.896 80.0381C215.087 102.442 211.971 121.229 211.971 121.788C211.971 122.97 234.591 123.228 235.316 122.054C235.571 121.641 237.497 109.726 239.596 95.5751C241.696 81.4241 243.729 70.1741 244.115 70.5751C244.501 70.9761 249.142 82.0501 254.428 95.1851C259.715 108.319 264.503 119.93 265.069 120.987C265.893 122.528 266.991 122.849 270.607 122.606L275.117 122.304L283.545 102.304C288.18 91.3041 293.186 79.4001 294.67 75.8511C297.284 69.6011 297.391 69.4911 298.095 72.3511C298.495 73.9751 299.992 84.7541 301.422 96.3041C302.853 107.854 304.272 118.542 304.576 120.054L305.13 122.804H317.118C328.052 122.804 329.063 122.65 328.622 121.054C328.357 120.091 327.846 117.054 327.487 114.304C327.128 111.554 324.165 91.7941 320.903 70.3931C317.64 48.9911 314.971 31.1041 314.971 30.6431C314.971 30.1811 309.459 29.8101 302.721 29.8161L290.471 29.8291L280.804 54.0661C275.487 67.3971 270.85 78.3041 270.5 78.3041C269.926 78.3041 265.634 67.4201 255.221 39.5541L251.577 29.8041H239.388H227.198L226.509 34.5541ZM344.971 76.3041V122.804H371.471H397.971V112.804V102.804H383.471H368.971V94.3041V85.8041H382.471H395.971V75.8041V65.8041H382.471H368.971V57.8041V49.8041H383.471H397.971V39.8041V29.8041H371.471H344.971V76.3041ZM67.728 72.9791C65.152 80.7521 63.279 87.4931 63.566 87.9581C64.256 89.0741 81.697 89.0561 82.387 87.9391C82.963 87.0081 74.496 60.9291 73.196 59.6291C72.766 59.1991 70.305 65.2061 67.728 72.9791ZM208.212 129.731C201.662 133.86 199.11 142.305 202.457 148.776C203.515 150.823 205.541 152.248 209.494 153.727C212.548 154.869 215.409 155.804 215.854 155.804C216.298 155.804 217.406 156.627 218.316 157.633C223.506 163.368 214.825 167.349 207.286 162.69C205.405 161.527 203.72 160.74 203.541 160.94C203.363 161.14 202.245 163.231 201.057 165.586L198.897 169.869L203.184 171.814C205.998 173.092 209.704 173.767 213.971 173.78C224.535 173.814 230.534 169.477 231.673 160.986C232.703 153.312 229.08 148.802 219.471 145.795C214.442 144.221 212.971 143.059 212.971 140.66C212.971 137.509 217.27 136.225 221.826 138.015L225.702 139.537L227.762 135.297L229.822 131.057L227.147 129.806C225.675 129.118 221.546 128.357 217.971 128.116C212.639 127.756 210.886 128.046 208.212 129.731ZM376.042 129.556C370.705 132.277 368.471 136.053 368.471 142.355C368.471 149.177 370.835 151.779 379.971 155.012C385.152 156.845 386.537 157.779 386.798 159.613C387.54 164.839 381.524 166.456 374.782 162.843L371.123 160.881L369.047 164.4C367.905 166.335 366.971 168.365 366.971 168.91C366.971 169.456 368.884 170.77 371.221 171.831C376.602 174.273 386.565 174.442 391.328 172.171C398.121 168.932 401.04 158.709 397.043 152.154C395.645 149.862 393.535 148.431 389.297 146.9C381.47 144.072 380.524 143.457 380.152 140.953C379.663 137.666 384.306 136.239 389.217 138.168L393.006 139.657L395.026 135.696C396.137 133.518 396.812 131.356 396.526 130.893C395.775 129.678 387.733 127.804 383.278 127.806C381.184 127.806 377.928 128.594 376.042 129.556ZM29.971 150.804V172.804H35.471H40.971V150.804V128.804H35.471H29.971V150.804ZM50.971 150.804V172.804H56.471H61.971V159.804C61.971 152.654 62.331 146.804 62.771 146.804C63.211 146.804 68.048 152.65 73.521 159.794L83.471 172.785L89.221 172.794L94.971 172.804V150.804V128.804H89.499H84.027L83.749 142.274L83.471 155.744L72.982 142.274L62.493 128.804H56.732H50.971V150.804ZM104.971 150.804V172.804L116.221 172.782C129.124 172.757 133.69 171.299 138.414 165.696C142.777 160.522 144.236 156.15 143.767 149.664C143.171 141.422 139.097 135.134 132.037 131.554C127.113 129.058 125.614 128.804 115.792 128.804H104.971V150.804ZM151.977 143.554C151.98 151.667 152.473 160.104 153.072 162.304C155.218 170.177 160.912 173.804 171.123 173.804C178.855 173.804 184.527 171.226 187.971 166.146C190.354 162.632 190.486 161.669 190.787 145.631L191.103 128.804H185.627H180.15L179.811 144.278C179.499 158.481 179.296 159.927 177.343 161.878C175.931 163.289 173.956 164.004 171.471 164.004C168.986 164.004 167.011 163.289 165.599 161.878C163.646 159.927 163.443 158.481 163.131 144.278L162.792 128.804H157.381H151.971L151.977 143.554ZM234.971 133.304V137.804H239.971H244.971V155.304V172.804H250.471H255.971V155.304V137.804H260.971H265.971V133.304V128.804H250.471H234.971V133.304ZM271.638 129.471C271.271 129.837 270.971 139.737 270.971 151.471V172.804H276.931H282.89L283.181 164.556L283.471 156.307L288.756 164.556L294.042 172.804H301.089H308.137L301.361 164.127C295.186 156.219 294.749 155.354 296.422 154.377C301.932 151.158 303.275 149.187 303.68 143.723C304.172 137.098 301.669 132.411 296.481 130.244C292.942 128.765 272.965 128.143 271.638 129.471ZM313.971 150.804V172.804H319.471H324.971V150.804V128.804H319.471H313.971V150.804ZM334.971 150.804V172.804H347.471H359.971V168.35V163.895L353.221 163.6L346.471 163.304L346.163 159.601L345.856 155.898L352.663 155.601L359.471 155.304V150.804V146.304L352.663 146.007L345.856 145.71L346.163 142.007L346.471 138.304L353.221 138.008L359.971 137.713V133.258V128.804H347.471H334.971V150.804ZM282.971 142.725C282.971 148.739 283.001 148.804 285.816 148.804C289.255 148.804 291.971 146.066 291.971 142.598C291.971 139.549 290.573 138.271 286.221 137.34L282.971 136.645V142.725ZM116.971 150.676V163.804H119.503C131.175 163.804 136.712 149.678 128.227 141.549C126.58 139.972 123.757 138.634 121.22 138.228L116.971 137.548V150.676Z" fill="#FF0000"/>
</svg>
