<svg width="684" height="130" viewBox="0 0 684 130" fill="none" xmlns="http://www.w3.org/2000/svg">
<path fill-rule="evenodd" clip-rule="evenodd" d="M3.01879 0.998987C0.213902 1.73212 0 6.23097 0 64.6246V127.462H4.31255H8.6251V68.1627V8.86336L18.2438 8.06467C30.802 7.02449 44.5418 9.27219 49.9894 13.2604C59.4028 20.1502 62.9615 35.1354 58.0021 47.0018C53.3618 58.111 34.9058 68.8113 20.3863 68.8113C16.6482 68.8113 15.5252 69.622 15.5252 72.32C15.5252 75.5544 16.2376 75.7372 24.5815 74.6522C43.6447 72.1751 57.8969 64.3003 64.5934 52.5443C70.2411 42.6306 71.1709 37.0053 68.9439 26.2723C65.085 7.68344 50.9209 -0.332726 22.5495 0.0105534C13.4672 0.120955 4.67826 0.566007 3.01879 0.998987ZM275.141 12.4704C258.367 18.0267 246.204 29.0358 238.717 45.4407C234.977 53.6346 234.015 58.3387 233.956 68.7285C233.916 75.8908 234.81 84.9005 235.945 88.7508C240.837 105.351 256.188 121.021 273.186 126.762C286.274 131.183 307.085 129.539 318.811 123.156C330.152 116.984 338.858 107.505 344.771 94.8936C348.642 86.6376 349.311 82.8943 349.277 69.6738C349.242 56.5947 348.523 52.6133 344.709 44.4057C335.372 24.3126 316.596 11.8028 294.211 10.754C287.149 10.4245 279.145 11.1438 275.141 12.4704ZM518.995 12.7602C475.928 26.5759 463.594 84.3365 497.249 114.595C519.483 134.586 555.003 134.298 575.827 113.962C606.407 84.0984 597.659 31.9493 559.21 14.9027C548.829 10.2986 529.823 9.28771 518.995 12.7602ZM637.098 13.3984C625.267 18.9444 620.224 30.9695 624.411 43.6553C627.337 52.5236 633.033 58.6647 649.177 70.3586C669.299 84.9333 673.084 89.3563 674.052 99.4287C674.74 106.596 674.207 108.549 670.3 113.194C667.795 116.17 662.972 119.522 659.581 120.641C651.59 123.277 635.67 122.035 627.562 118.142C624.052 116.455 620.366 115.58 619.369 116.196C615.537 118.564 617.854 122.591 624.889 125.784C633.357 129.627 654.79 130.41 664.307 127.222C676.205 123.237 683.108 113.508 683.108 100.724C683.108 87.2397 678.963 81.9784 652.67 62.0923C635.003 48.7286 629.921 41.0091 632.391 31.28C635.468 19.1497 650.416 14.3403 669.296 19.405C678.316 21.8252 681.245 21.2197 681.357 16.9071C681.426 14.2178 670.529 11.3112 658.095 10.7022C647.009 10.1588 642.881 10.6884 637.098 13.3984ZM101.776 69.553V127.462H106.089H110.401V98.1366V68.8113H150.077H189.752V98.1366V127.462H194.065H198.377V69.6738V11.8856H194.065H189.752V36.8984V61.9112H150.123H110.496L110.017 37.3296C109.549 13.3174 109.449 12.736 105.658 12.1961L101.776 11.6458V69.553ZM385.83 13.0362C385.197 13.6675 384.68 39.5653 384.68 70.5829V126.981L393.736 128.069C425.224 131.852 445.004 125.913 451.327 110.779C454.69 102.734 454.234 92.1853 450.184 84.245C446.597 77.2173 434.56 67.0863 429.796 67.0863C427.933 67.0863 428.735 65.394 432.449 61.4799C440.134 53.381 443.33 46.0013 443.33 36.355C443.33 19.2445 431.752 11.9839 404.374 11.9235C394.807 11.9028 386.462 12.4031 385.83 13.0362ZM282.736 18.9202C272.322 20.5348 265.217 24.354 257.13 32.6876C237.744 52.6634 237.287 85.6389 256.107 106.47C279.16 131.987 322.208 124.554 336.543 92.5803C342.011 80.3879 342.211 59.6117 336.974 48.023C327.278 26.5672 306.243 15.2787 282.736 18.9202ZM526.209 18.9927C486.785 26.4741 473.166 80.6156 503.556 109.042C513.565 118.404 521.758 121.369 537.344 121.267C562.15 121.105 580.507 104.982 584.53 79.8221C590.552 42.1511 561.862 12.2271 526.209 18.9927ZM393.305 40.3484V61.9112H398.238C400.953 61.9112 406.762 62.4028 411.148 63.0049C418.732 64.0433 419.458 63.7639 425.887 57.3347C433.998 49.2237 437.339 39.1599 434.565 31.2006C431.805 23.2845 421.345 18.7857 405.697 18.7857H393.305V40.3484ZM394.598 69.8101C393.886 70.526 393.305 82.2371 393.305 95.8372V120.562H409.863C428.894 120.562 436.618 117.892 441.904 109.487C446.108 102.801 445.307 91.9593 440.068 84.6004C438.022 81.7265 432.29 77.4329 427.332 75.061C418.3 70.7381 397.064 67.3312 394.598 69.8101Z" fill="#ACACAC"/>
</svg>
