<svg width="858" height="723" viewBox="0 0 858 723" fill="none" xmlns="http://www.w3.org/2000/svg">
<path fillRule="evenodd" clipRule="evenodd" d="M384.25 3.26284C363.558 11.6548 336.134 33.3148 322.06 52.3828C318.443 57.2828 311.175 71.9859 305.005 86.8829C293.368 114.983 272 175.599 272 180.512C272 181.792 273.204 185.294 274.676 188.296C277.824 194.713 277.433 195.616 269.85 199.459C262.37 203.249 258.41 207.357 250.048 219.995C236.058 241.138 228.161 258.537 228.889 266.61C228.999 267.82 243.681 287.659 257.736 305.589C261.706 310.652 264.626 314.988 264.226 315.226C263.827 315.464 257.875 317.087 251 318.834C231.893 323.688 208.958 330.776 204.5 333.204C201.666 334.748 198.854 337.86 194.851 343.883C188.604 353.285 170 387.228 170 389.226C170 389.922 171.35 392.62 173 395.222C174.65 397.824 176 400.071 176 400.215C176 400.36 173.06 400.291 169.466 400.062L162.933 399.646L157.691 405.014C154.808 407.967 145.118 418.905 136.157 429.32C127.196 439.736 113.409 455.036 105.518 463.32C87.538 482.198 87.387 482.394 84.568 490.682C83.285 494.454 80.211 501.555 77.736 506.462C75.197 511.496 72.709 518.2 72.025 521.85C70.716 528.841 66.476 538.295 65.047 537.412C64.544 537.101 64.584 535.353 65.139 533.341C66.17 529.608 65.534 525.883 63.867 525.883C58.355 525.883 32.047 549.077 21.104 563.583C13.453 573.727 5.26699 590.378 2.42599 601.575C1.09199 606.836 0 611.787 0 612.578C0 613.477 2.152 612.344 5.75 609.55C17.928 600.092 33.096 594.863 54.33 592.804C69.123 591.37 101 592.775 101 594.862C101 595.248 98.628 596.095 95.73 596.744C90.467 597.922 66 609.192 66 610.439C66 610.801 66.749 610.809 67.665 610.458C74.97 607.655 102.814 603.386 123.5 601.898C140.724 600.659 145 600.632 145 601.761C145 602.244 140.612 605.926 135.25 609.942C122.761 619.297 113.153 627.176 113.067 628.133C112.928 629.692 116.422 628.743 127.243 624.283C153.826 613.327 167.833 610.466 191.75 611.109C201.237 611.364 209 611.387 209 611.16C209 610.158 189.511 601.837 179.5 598.566C156.324 590.991 120.687 584.012 86.186 580.291C82.714 579.917 80.239 579.253 80.686 578.817C82.961 576.599 99.233 574.514 114.766 574.45C128.125 574.395 130.716 574.158 129.266 573.123C109.417 558.962 102.49 552.332 103.272 548.243C104.013 544.364 100.58 543.585 88.781 544.957C83.341 545.589 78.641 545.858 78.337 545.553C77.471 544.688 84.843 541.864 92 540.32C95.575 539.549 102.775 538.921 108 538.925C116.446 538.931 119.529 539.304 128.93 541.455C130.761 541.874 129.066 539.613 122.043 532.266C116.919 526.907 111.419 520.465 109.821 517.952C106.871 513.314 100.534 494.781 101.207 492.762C101.409 492.155 103.241 493.691 105.277 496.176C112.862 505.433 127.352 515.123 139 518.73C151.433 522.579 150.949 522.577 146.987 518.764C134.439 506.685 123.59 486.13 124.199 475.586L124.5 470.383L129.5 470.122C136.706 469.745 138.473 469.197 141.967 466.258C145.772 463.056 148.649 457.62 150.086 450.916C151.116 446.114 151.316 445.883 154.447 445.883C160.706 445.883 164 440.374 164 429.906C164 424.569 166.946 419.229 171.03 417.162C175.086 415.11 191.064 415.831 200.157 418.477C201.661 418.914 201.638 418.393 199.907 412.832C196.448 401.72 197.823 387.647 203.549 375.553C204.902 372.696 206.932 369.782 208.06 369.078C209.188 368.373 217.086 362.411 225.612 355.828L241.113 343.86L244.306 347.161C246.063 348.976 251.551 353.867 256.502 358.03C267.405 367.197 276.493 376.774 282.044 384.948C284.318 388.297 286.346 390.871 286.549 390.667C287.131 390.085 284.348 379.114 281.548 370.958C278.788 362.915 278.55 361.143 279.936 358.952C280.655 357.816 282.064 358.653 286.766 363.006C296.546 372.06 310.636 382.207 328.777 393.26C334.171 396.546 355.107 407.883 355.783 407.883C356.97 407.883 343.372 388.823 332.945 375.871C320.644 360.591 311.708 347.237 305.183 334.383C299.869 323.915 298.046 321.362 290.899 314.383C278.289 302.07 263.568 280.743 260.391 270.186C254.941 252.079 266.581 228.675 287.796 215.08C322.02 193.149 380.275 174.372 424.935 170.877C432.874 170.255 442.774 169.99 446.935 170.288L454.5 170.829L448.5 168.794C438.52 165.41 421.344 163.582 405.5 164.217C375.409 165.423 340.985 173.654 307.704 187.601C301.767 190.089 296.721 191.937 296.492 191.708C296.263 191.479 298.003 188.837 300.36 185.837C307.306 176.994 317.378 170.336 329 166.905C331.312 166.223 331.168 166.075 327.093 164.944C313.719 161.233 304.43 161.683 296.326 166.432C293.947 167.827 292 168.8 292 168.596C292 166.839 300.153 138.982 304.647 125.383C318.555 83.2969 324.981 69.9858 341.663 48.7078C359.327 26.1768 370.314 15.3228 384.628 6.26185C387.999 4.12885 391.599 1.84685 392.628 1.19185C396.033 -0.975155 392.616 -0.130155 384.25 3.26284ZM418.695 3.22685C434.703 9.95585 447.217 19.4988 451.78 28.4578C455.054 34.8838 457.143 42.8908 455.691 43.4478C454.422 43.9348 445.758 41.7958 431 37.3518C426.325 35.9438 418.9 34.5138 414.5 34.1738C407.041 33.5978 406.595 33.6709 407.907 35.2609C408.68 36.1989 414.626 39.6738 421.118 42.9838C437.495 51.3328 440.347 55.3299 436.5 64.5369C434.162 70.1329 434.564 71.6198 439.034 73.8998C444.624 76.7518 446.58 81.0149 444.997 86.8939C444.093 90.2529 442.114 92.9718 436.656 98.3568C428.265 106.635 427.225 107.071 400.973 113.322C374.265 119.681 363.024 124.025 352.275 132.141C349.345 134.353 347.082 136.299 347.248 136.464C347.413 136.63 352.648 135.908 358.88 134.86C375.167 132.122 393.208 130.608 411 130.488C426.055 130.386 426.873 130.49 439.5 134.111C460.866 140.239 465.381 141.027 478.907 140.989C491.84 140.952 499.105 142.1 501.092 144.494C502.057 145.656 501.123 145.883 495.37 145.883C491.588 145.883 474.457 146.782 457.3 147.88C426.511 149.85 409.029 151.824 400.743 154.263C396.723 155.447 397.262 155.549 411 156.213C447.375 157.972 475.995 163.834 495.107 173.443C509.259 180.557 547.925 208.043 559.936 219.527C569.807 228.964 583.914 246.853 585.271 251.656C586.711 256.75 583.805 272.487 579.347 283.736C574.828 295.137 569.153 302.781 558.211 312.201C541.924 326.224 531.721 340.343 517.973 367.883C511.831 380.187 495.97 415.512 496.032 416.749C496.049 417.098 496.701 416.541 497.48 415.513C498.259 414.484 500.832 411.55 503.198 408.993C508.785 402.955 520.243 389.902 526.27 382.709C536.86 370.072 561.167 356.78 578.803 353.984C586.221 352.807 596 351.981 596 352.53C596 352.725 591.528 357.271 586.062 362.633C575.881 372.621 571.194 380.046 569.491 388.883L568.817 392.383L571.751 387.883C579.514 375.979 591.279 368.826 604.336 368.07C612.357 367.605 632.701 369.59 633.521 370.917C633.77 371.319 633.141 372.713 632.124 374.015C624.812 383.378 619.762 403.167 618.505 427.383L617.882 439.383L625.284 425.376C629.356 417.671 635.211 407.287 638.296 402.299C643.961 393.141 652.626 380.883 653.434 380.883C654.259 380.883 666.793 402.372 670.981 410.967C673.282 415.688 678.265 423.72 682.055 428.815C686.12 434.281 689.219 439.534 689.611 441.624C689.977 443.574 689.975 449.832 689.606 455.532C689.201 461.799 689.326 466.624 689.923 467.739C690.465 468.752 693.611 470.567 696.912 471.771C703.855 474.302 707 477.668 707 482.568C707 487.331 704.658 491.371 697.689 498.629C694.386 502.068 691.959 504.883 692.297 504.883C694.446 504.883 718.321 494.815 727.636 489.981L738.817 484.179L738.661 495.281C738.429 511.871 741.155 517.919 750.953 522.554C754 523.995 757.043 525.897 757.715 526.779C762.341 532.853 754.807 548.008 739.147 564.133L733.563 569.883H736.531C740.573 569.883 754.384 567.207 760.5 565.24C763.25 564.355 766.932 562.563 768.683 561.257C770.434 559.951 772.122 558.883 772.433 558.883C773.55 558.883 772.973 568.655 771.584 573.269C768.767 582.631 763.442 587.139 753.713 588.397C749.25 588.975 748.623 589.433 744.465 595.147C737.846 604.244 736.013 605.104 721.611 605.877C707.851 606.616 702.75 608.375 693.027 615.738L687.554 619.883H677.593C666.832 619.883 658.135 621.741 653.99 624.925L651.5 626.839L661 626.87C714.297 627.045 755.272 636.213 781.671 653.869C785.849 656.663 789.47 658.747 789.717 658.499C789.965 658.251 788.497 655.424 786.455 652.216C780.813 643.353 768.755 632.029 760 627.372L752.5 623.383L757.232 623.079C767.482 622.42 785.769 629.579 802.432 640.773C807.728 644.33 810.052 645.448 809.589 644.212C805.812 634.14 790.361 617.261 780.5 612.435L774.5 609.498L781.966 607.73C794.125 604.85 806.936 602.882 813.426 602.898C831.336 602.941 846.801 611.643 853.892 625.666L856.688 631.195L857.346 627.903C859.683 616.219 847.207 598.809 825 582.766C809.118 571.293 810.913 571.894 805.583 576.261C800.429 580.485 800.115 580.103 803.083 573.216C805.143 568.437 805.148 568.211 803.525 552.973C801.663 535.487 799.216 520.208 797.868 517.658C797.366 516.709 790.553 510.587 782.728 504.053C763.05 487.624 759.823 483.924 753.525 470.569C750.624 464.417 747.513 457.111 746.612 454.335L744.973 449.287L736.677 446.585C727.068 443.455 727 443.446 727 445.248C727 448.041 716.793 457.883 713.896 457.883C713.454 457.883 714.192 455.521 715.536 452.633C716.881 449.745 717.985 445.769 717.99 443.797C718.005 438.325 675.795 354.324 667.515 343.347C663.66 338.236 652.985 333.756 606.583 317.775C593.978 313.433 583.475 309.691 583.243 309.459C583.011 309.227 584.639 306.359 586.862 303.087C598.53 285.905 618 250.117 618 245.852C618 242.891 615.858 239.064 605.985 224.383C601.176 217.233 594.741 207.558 591.684 202.883C585.625 193.618 579.235 186.573 574.819 184.289C571.476 182.561 571.457 182.454 573.897 179.028C574.94 177.563 576.289 174.522 576.896 172.27C578.265 167.186 577.066 163.287 572.174 156.913C568.159 151.682 566.688 148.518 557.514 125.392C547.028 98.9539 536.084 78.2189 524.219 62.3019C517.714 53.5759 496.462 32.1488 488.025 25.8098C474.489 15.6388 441.282 4.08885 415 0.410847C410.889 -0.164153 411.208 0.0788493 418.695 3.22685ZM606.917 485.249C606.688 485.45 573.65 485.913 533.5 486.277C455.073 486.989 336.18 488.397 263.671 489.473C220.56 490.113 218.814 490.212 218.125 492.075C217.73 493.141 217.965 499.721 218.645 506.698C219.326 513.675 221.272 534.008 222.969 551.883C224.667 569.758 227.16 595.858 228.51 609.883C235.12 678.589 239 719.848 239 721.448C239 722.421 239.195 723.021 239.434 722.782C239.673 722.543 239.254 699.181 238.504 670.866C234.191 508.166 234.179 513.184 238.891 511.369C240.663 510.686 272.891 509.891 420 506.898C474.175 505.796 541.273 504.391 569.106 503.777C623.08 502.584 623.178 502.591 624.984 507.34C625.488 508.666 625.717 552.385 625.515 608.529C625.319 662.899 625.36 705.808 625.607 703.883C626.028 700.602 627.337 683.228 633.483 599.383C634.854 580.683 637.115 550.083 638.508 531.383C641.829 486.789 641.822 487.015 640 485.863C638.619 484.989 607.862 484.418 606.917 485.249ZM464.107 592.796C463.325 593.291 462.942 594.552 463.234 595.67C463.943 598.38 463.361 599.068 456.877 603.2L451.254 606.782L449.076 604.464C445.495 600.652 437.328 596.772 431.653 596.187C423.32 595.327 415.848 597.968 409.422 604.045L404.103 609.076L397.492 605.953C392.095 603.403 390.991 602.487 391.475 600.962C391.817 599.886 391.388 598.414 390.464 597.49C388.277 595.303 384.75 597.115 385.189 600.201C385.387 601.588 384.772 602.758 383.5 603.413C381.061 604.668 380.892 607.782 383.185 609.228C384.406 609.998 385.534 609.935 387.286 608.997C389.426 607.852 390.406 608.059 395.851 610.808C399.233 612.515 402 614.108 402 614.348C402 614.588 401.526 616.995 400.946 619.697C400.118 623.561 400.23 626.063 401.473 631.421C402.341 635.167 402.664 638.491 402.189 638.808C392.056 645.561 391.135 645.985 389.208 644.781C388.139 644.113 386.53 643.849 385.632 644.194C383.362 645.065 383.589 648.593 386 649.883C387.18 650.515 388 651.977 388 653.45C388 654.838 388.726 656.224 389.636 656.574C392.076 657.51 394.5 655.493 394.5 652.527C394.5 650.489 395.652 649.133 399.711 646.396C402.576 644.464 405.501 642.895 406.211 642.91C406.92 642.925 409.188 644.506 411.25 646.424C414.508 649.453 415 650.498 415 654.396C415 658.857 415.02 658.883 418.5 658.883C421.722 658.883 422 658.645 422 655.883C422 651.974 423.875 652.007 424.659 655.93C425.431 659.789 428.361 659.573 428.816 655.624C429.22 652.13 432 651.919 432 655.383C432 657.398 432.496 657.883 434.559 657.883C436.026 657.883 436.852 657.452 436.494 656.874C435.681 655.558 436.858 651.883 438.092 651.883C438.619 651.883 439.325 653.257 439.661 654.936C440.177 657.518 440.675 657.943 442.886 657.686C445.281 657.408 445.5 656.998 445.5 652.797C445.5 648.878 446.064 647.585 449.382 643.898L453.265 639.584L459.632 642.724C464.894 645.319 466 646.294 466 648.338C466 651.366 468.809 653.129 471.36 651.701C472.627 650.992 472.993 649.991 472.582 648.354C472.136 646.578 472.489 645.862 474.056 645.365C475.579 644.882 476.036 644.017 475.808 642.047C475.45 638.949 472.057 637.905 470.081 640.285C468.993 641.596 468.039 641.39 462.465 638.642L456.092 635.499L456.684 627.821C457.121 622.159 456.861 618.924 455.696 615.503L454.115 610.864L460.228 606.892C464.737 603.962 466.674 603.198 467.615 603.978C469.745 605.746 473.463 604.641 473.819 602.135C474.053 600.488 473.456 599.627 471.588 598.917C469.872 598.264 469.232 597.442 469.631 596.402C470.285 594.699 468.401 591.874 466.628 591.898C466.007 591.907 464.873 592.311 464.107 592.796ZM445.667 623.498C447.202 625.84 447.227 626.389 445.909 628.748C443.125 633.734 435 632.164 435 626.64C435 621.027 442.584 618.793 445.667 623.498ZM421 623.883C422.1 624.983 423 626.783 423 627.883C423 630.442 419.581 633.883 417.039 633.883C414.634 633.883 411 630.159 411 627.694C411 625.279 414.506 621.883 417 621.883C418.1 621.883 419.9 622.783 421 623.883ZM624.079 710.466C624.127 711.631 624.364 711.868 624.683 711.071C624.972 710.349 624.936 709.486 624.604 709.154C624.272 708.822 624.036 709.412 624.079 710.466Z" fill="#F90401"/>
</svg>
